
<?xml version="1.0" standalone="no"?>
<svg xmlns:xlink="http://www.w3.org/1999/xlink" id="wave" style="transform:rotate(0deg); transition: 0.3s" viewBox="0 0 1440 280" version="1.1" xmlns="http://www.w3.org/2000/svg"><defs><linearGradient id="sw-gradient-0" x1="0" x2="0" y1="1" y2="0"><stop stop-color="rgba(251, 174, 60, 1)" offset="0%"/><stop stop-color="rgba(251, 174, 60, 1)" offset="100%"/></linearGradient></defs><path style="transform:translate(0, 0px); opacity:1" fill="url(#sw-gradient-0)" d="M0,224L48,200.7C96,177,192,131,288,126C384,121,480,159,576,172.7C672,187,768,177,864,144.7C960,112,1056,56,1152,51.3C1248,47,1344,93,1440,135.3C1536,177,1632,215,1728,196C1824,177,1920,103,2016,84C2112,65,2208,103,2304,130.7C2400,159,2496,177,2592,158.7C2688,140,2784,84,2880,88.7C2976,93,3072,159,3168,154C3264,149,3360,75,3456,79.3C3552,84,3648,168,3744,196C3840,224,3936,196,4032,177.3C4128,159,4224,149,4320,135.3C4416,121,4512,103,4608,93.3C4704,84,4800,84,4896,102.7C4992,121,5088,159,5184,144.7C5280,131,5376,65,5472,42C5568,19,5664,37,5760,37.3C5856,37,5952,19,6048,46.7C6144,75,6240,149,6336,158.7C6432,168,6528,112,6624,102.7C6720,93,6816,131,6864,149.3L6912,168L6912,280L6864,280C6816,280,6720,280,6624,280C6528,280,6432,280,6336,280C6240,280,6144,280,6048,280C5952,280,5856,280,5760,280C5664,280,5568,280,5472,280C5376,280,5280,280,5184,280C5088,280,4992,280,4896,280C4800,280,4704,280,4608,280C4512,280,4416,280,4320,280C4224,280,4128,280,4032,280C3936,280,3840,280,3744,280C3648,280,3552,280,3456,280C3360,280,3264,280,3168,280C3072,280,2976,280,2880,280C2784,280,2688,280,2592,280C2496,280,2400,280,2304,280C2208,280,2112,280,2016,280C1920,280,1824,280,1728,280C1632,280,1536,280,1440,280C1344,280,1248,280,1152,280C1056,280,960,280,864,280C768,280,672,280,576,280C480,280,384,280,288,280C192,280,96,280,48,280L0,280Z"/></svg>