<svg id="wave" style="transform:rotate(180deg); transition: 0.3s" viewBox="0 0 1440 130" version="1.1" xmlns="http://www.w3.org/2000/svg"><defs><linearGradient id="sw-gradient-0" x1="0" x2="0" y1="1" y2="0"><stop stop-color="rgba(251, 174, 60, 1)" offset="0%"></stop><stop stop-color="rgba(251, 174, 60, 1)" offset="100%"></stop></linearGradient></defs><path style="transform:translate(0, 0px); opacity:1" fill="url(#sw-gradient-0)" d="M0,65L480,26L960,104L1440,26L1920,65L2400,13L2880,117L3360,39L3840,0L4320,104L4800,65L5280,65L5760,104L6240,65L6720,91L7200,0L7680,65L8160,39L8640,26L9120,117L9600,52L10080,91L10560,104L11040,104L11520,39L11520,130L11040,130L10560,130L10080,130L9600,130L9120,130L8640,130L8160,130L7680,130L7200,130L6720,130L6240,130L5760,130L5280,130L4800,130L4320,130L3840,130L3360,130L2880,130L2400,130L1920,130L1440,130L960,130L480,130L0,130Z"></path></svg>